@startuml
class FloatEventHandlers {
    + value : float <<get>> <<set>>
}
class FloatEvent {
    + FloatEvent(newEventType:Type)
    + floatParameter : float
    + floatTriggerLow : float = 0.01F
    + floatTriggerHigh : float = 0.99F
    + multiplicationFactor : float = 1
    + intTriggerLow : int = 0
    + intTriggerHigh : int = 1
    + <<virtual>> value : float <<get>> <<set>>
}
class "EventHandlers`1"<T> {
}
"EventHandlers`1" "<FloatEvent>" <|-- FloatEventHandlers
EventHandler <|-- FloatEvent
@enduml
